# xmcd
#
# Track frame offsets: 
#        150
#        10962
#        23412
#        39912
#        55587
#        72162
#        84987
#        97212
#        115662
#        130362
#
# Disc length: 1982 seconds
#
# Revision: 0
# Processed by: cddbd v1.4PL0 Copyright (c) Steve Scherf et al.
# Submitted via: ExactAudioCopy v0.95a3
#
DISCID=7307bc0a
DTITLE=Various Artist - Dr Pepper Country
DYEAR=2000
DGENRE=Country
TTITLE0=Born In The Dark
TTITLE1=When You Walk In The Room
TTITLE2=Old Enough To Know Better
TTITLE3=This Is Me Missing You
TTITLE4=One Boy, One Girl
TTITLE5=Live Until I Die
TTITLE6=Juke Box Junkie
TTITLE7=You Don't Even Know Who I Am
TTITLE8=Bobby Ann Mason
TTITLE9=What Mettered Most
EXTD=
EXTT0=
EXTT1=
EXTT2=
EXTT3=
EXTT4=
EXTT5=
EXTT6=
EXTT7=
EXTT8=
EXTT9=
PLAYORDER=
